<?xml version="1.0" encoding="utf-8"?>
<!-- Generator: Adobe Illustrator 16.0.0, SVG Export Plug-In . SVG Version: 6.00 Build 0)  -->
<!DOCTYPE svg PUBLIC "-//W3C//DTD SVG 1.1//EN" "http://www.w3.org/Graphics/SVG/1.1/DTD/svg11.dtd">
<svg width="297" height="33.273" xmlns="http://www.w3.org/2000/svg" xmlns:xlink="http://www.w3.org/1999/xlink">
 <g>
  <title>background</title>
  <rect x="-1" y="-1" width="299" height="35.273" id="canvas_background" fill="none"/>
 </g>
 <g>
  <title>Layer 1</title>
  <g id="svg_1">
   <g id="svg_2">
    <defs>
     <polygon id="SVGID_1_" points="0,0 32.441,0 87.691,4.573 297,4.573 297,22.864 87.527,22.864 33.492,18.292 0,18.292    "/>
    </defs>
    <clipPath id="SVGID_2_">
     <use xlink:href="#SVGID_1_" id="svg_3"/>
    </clipPath>
    <g clip-path="url(#SVGID_2_)" id="svg_4">
     <g id="svg_5">
      <defs>
       <rect id="SVGID_3_" x="-270" y="-284.627" width="612" height="792"/>
      </defs>
      <clipPath id="SVGID_4_">
       <use xlink:href="#SVGID_3_" id="svg_6"/>
      </clipPath>
      <rect x="-5" y="-5" clip-path="url(#SVGID_4_)" fill="#EDEDED" width="307" height="32.866" id="svg_7"/>
     </g>
    </g>
   </g>
  </g>
  <g id="svg_8">
   <path fill="#005972" d="m119.685,32.174l0,-5.051l-1.887,0l0,-0.676l4.539,0l0,0.676l-1.895,0l0,5.051l-0.757,0z" id="svg_9"/>
   <path fill="#005972" d="m123.126,32.174l0,-5.727l2.539,0c0.51,0 0.898,0.053 1.164,0.154s0.479,0.283 0.637,0.545c0.158,0.262 0.238,0.548 0.238,0.863c0,0.406 -0.131,0.748 -0.395,1.027c-0.264,0.277 -0.67,0.455 -1.219,0.53c0.201,0.097 0.354,0.19 0.457,0.285c0.221,0.203 0.432,0.457 0.629,0.763l0.996,1.559l-0.953,0l-0.758,-1.191c-0.221,-0.344 -0.404,-0.605 -0.547,-0.789s-0.271,-0.311 -0.385,-0.383c-0.114,-0.073 -0.229,-0.124 -0.346,-0.152c-0.086,-0.019 -0.227,-0.027 -0.422,-0.027l-0.879,0l0,2.543l-0.756,0zm0.758,-3.198l1.629,0c0.346,0 0.617,-0.036 0.813,-0.106c0.196,-0.072 0.344,-0.188 0.445,-0.345s0.152,-0.329 0.152,-0.515c0,-0.27 -0.098,-0.492 -0.295,-0.668c-0.197,-0.174 -0.508,-0.262 -0.932,-0.262l-1.813,0l0.001,1.896l0,0z" id="svg_10"/>
   <path fill="#005972" d="m128.263,32.174l2.199,-5.727l0.816,0l2.344,5.727l-0.863,0l-0.668,-1.733l-2.395,0l-0.629,1.733l-0.804,0zm1.652,-2.349l1.941,0l-0.598,-1.587c-0.182,-0.481 -0.318,-0.878 -0.406,-1.188c-0.072,0.367 -0.176,0.732 -0.309,1.095l-0.628,1.68z" id="svg_11"/>
   <path fill="#005972" d="m134.356,32.174l0,-5.727l0.758,0l0,5.727l-0.758,0z" id="svg_12"/>
   <path fill="#005972" d="m136.419,32.174l0,-5.727l0.758,0l0,5.053l2.82,0l0,0.676l-3.578,0l0,-0.002z" id="svg_13"/>
   <path fill="#005972" d="m141.028,32.174l0,-5.727l0.758,0l0,5.727l-0.758,0z" id="svg_14"/>
   <path fill="#005972" d="m143.114,32.174l0,-5.727l0.777,0l3.008,4.496l0,-4.496l0.727,0l0,5.727l-0.777,0l-3.008,-4.5l0,4.5l-0.727,0z" id="svg_15"/>
   <path fill="#005972" d="m151.579,29.929l0,-0.673l2.426,-0.004l0,2.125c-0.373,0.297 -0.756,0.521 -1.151,0.67c-0.396,0.149 -0.804,0.226 -1.22,0.226c-0.563,0 -1.073,-0.12 -1.532,-0.36c-0.459,-0.242 -0.808,-0.59 -1.041,-1.045c-0.234,-0.457 -0.353,-0.966 -0.353,-1.527c0,-0.559 0.117,-1.077 0.351,-1.562c0.232,-0.483 0.567,-0.842 1.006,-1.075c0.438,-0.234 0.94,-0.353 1.512,-0.353c0.414,0 0.789,0.067 1.123,0.2c0.334,0.135 0.598,0.322 0.787,0.562c0.188,0.24 0.334,0.552 0.434,0.938l-0.684,0.188c-0.086,-0.292 -0.193,-0.521 -0.32,-0.688c-0.127,-0.168 -0.311,-0.301 -0.547,-0.4s-0.5,-0.15 -0.789,-0.15c-0.346,0 -0.646,0.054 -0.898,0.158c-0.252,0.105 -0.457,0.244 -0.611,0.416c-0.153,0.172 -0.274,0.36 -0.36,0.566c-0.146,0.354 -0.219,0.738 -0.219,1.152c0,0.511 0.088,0.938 0.264,1.281c0.177,0.342 0.433,0.598 0.769,0.766c0.336,0.166 0.692,0.25 1.07,0.25c0.327,0 0.647,-0.063 0.961,-0.189c0.313,-0.126 0.549,-0.261 0.711,-0.404l0,-1.065l-1.687,0l0,-0.003l-0.002,0z" id="svg_16"/>
   <path fill="#005972" d="m157.359,32.174l0,-5.727l4.142,0l0,0.676l-3.383,0l0,1.754l3.168,0l0,0.672l-3.168,0l0,1.951l3.516,0l0,0.676l-4.274,0l0,-0.002l-0.001,0z" id="svg_17"/>
   <path fill="#005972" d="m162.682,32.174l0,-5.727l1.973,0c0.445,0 0.785,0.027 1.02,0.082c0.328,0.075 0.607,0.213 0.84,0.41c0.303,0.255 0.527,0.581 0.678,0.979c0.151,0.398 0.226,0.852 0.226,1.361c0,0.436 -0.051,0.82 -0.151,1.156c-0.102,0.336 -0.232,0.613 -0.392,0.834s-0.332,0.395 -0.521,0.52c-0.189,0.127 -0.416,0.223 -0.685,0.287c-0.269,0.065 -0.573,0.098 -0.92,0.098l-2.068,0zm0.756,-0.674l1.224,0c0.377,0 0.674,-0.035 0.889,-0.105c0.216,-0.07 0.388,-0.169 0.515,-0.297c0.18,-0.18 0.319,-0.422 0.42,-0.725c0.1,-0.305 0.149,-0.672 0.149,-1.104c0,-0.599 -0.098,-1.06 -0.295,-1.381c-0.196,-0.321 -0.437,-0.537 -0.717,-0.646c-0.203,-0.078 -0.529,-0.117 -0.979,-0.117l-1.203,0l0,4.375l-0.003,0z" id="svg_18"/>
   <path fill="#005972" d="m171.139,29.929l0,-0.673l2.426,-0.004l0,2.125c-0.373,0.297 -0.756,0.521 -1.152,0.67c-0.396,0.149 -0.803,0.226 -1.219,0.226c-0.563,0 -1.074,-0.12 -1.533,-0.36c-0.459,-0.242 -0.807,-0.59 -1.041,-1.045c-0.234,-0.457 -0.352,-0.966 -0.352,-1.527c0,-0.559 0.116,-1.077 0.35,-1.562c0.232,-0.483 0.568,-0.842 1.006,-1.075c0.438,-0.234 0.941,-0.353 1.512,-0.353c0.414,0 0.789,0.067 1.123,0.2c0.334,0.135 0.598,0.322 0.787,0.562c0.189,0.24 0.334,0.552 0.434,0.938l-0.684,0.188c-0.086,-0.292 -0.193,-0.521 -0.32,-0.688c-0.127,-0.168 -0.311,-0.301 -0.547,-0.4s-0.5,-0.15 -0.789,-0.15c-0.346,0 -0.646,0.054 -0.897,0.158c-0.253,0.105 -0.457,0.244 -0.611,0.416c-0.153,0.172 -0.274,0.36 -0.36,0.566c-0.146,0.354 -0.22,0.738 -0.22,1.152c0,0.511 0.089,0.938 0.265,1.281c0.176,0.342 0.432,0.598 0.768,0.766c0.336,0.166 0.693,0.25 1.07,0.25c0.328,0 0.647,-0.063 0.961,-0.189c0.313,-0.126 0.549,-0.261 0.711,-0.404l0,-1.065l-1.686,0l0,-0.003l-0.002,0z" id="svg_19"/>
   <path fill="#005972" d="m174.695,32.174l0,-5.727l4.142,0l0,0.676l-3.383,0l0,1.754l3.168,0l0,0.672l-3.168,0l0,1.951l3.517,0l0,0.676l-4.275,0l0,-0.002l-0.001,0z" id="svg_20"/>
  </g>
  <text fill="#005972" x="4" y="31.6365" id="svg_21" font-size="8" font-family="'ArialMT'" xml:space="preserve">HUB</text>
  <text fill="#005972" x="281" y="31.6365" id="svg_22" font-size="8" font-family="'ArialMT'" xml:space="preserve">TIP</text>
 </g>
</svg>