<?xml version="1.0" encoding="utf-8"?>
<!-- Generator: Adobe Illustrator 16.0.0, SVG Export Plug-In . SVG Version: 6.00 Build 0)  -->
<!DOCTYPE svg PUBLIC "-//W3C//DTD SVG 1.1//EN" "http://www.w3.org/Graphics/SVG/1.1/DTD/svg11.dtd">
<svg width="297" height="29.582" xmlns="http://www.w3.org/2000/svg" xmlns:xlink="http://www.w3.org/1999/xlink">
 <g>
  <title>background</title>
  <rect x="-1" y="-1" width="299" height="31.582" id="canvas_background" fill="none"/>
 </g>
 <g>
  <title>Layer 1</title>
  <g id="svg_1">
   <g id="svg_2">
    <defs>
     <rect id="SVGID_1_" y="0" width="297" height="19.055"/>
    </defs>
    <clipPath id="SVGID_2_">
     <use xlink:href="#SVGID_1_" id="svg_3"/>
    </clipPath>
    <g clip-path="url(#SVGID_2_)" id="svg_4">
     <g id="svg_5">
      <defs>
       <rect id="SVGID_3_" x="-270" y="-199.837" width="612" height="792"/>
      </defs>
      <clipPath id="SVGID_4_">
       <use xlink:href="#SVGID_3_" id="svg_6"/>
      </clipPath>
      <rect x="-5" y="-5" clip-path="url(#SVGID_4_)" fill="#EDEDED" width="307" height="29.055" id="svg_7"/>
     </g>
    </g>
   </g>
  </g>
  <g id="svg_8">
   <path fill="#005972" d="m119.12,29.484l0,-5.726l0.758,0l0,5.051l2.82,0l0,0.676l-3.578,-0.001l0,0z" id="svg_9"/>
   <path fill="#005972" d="m123.616,29.484l0,-5.726l4.141,0l0,0.676l-3.383,0l0,1.754l3.168,0l0,0.672l-3.168,0l0,1.949l3.516,0l0,0.676l-4.274,-0.001l0,0z" id="svg_10"/>
   <path fill="#005972" d="m128.308,29.484l2.199,-5.727l0.816,0l2.344,5.727l-0.863,0l-0.668,-1.734l-2.395,0l-0.629,1.734l-0.804,0zm1.652,-2.35l1.941,0l-0.598,-1.586c-0.182,-0.481 -0.318,-0.879 -0.406,-1.188c-0.072,0.367 -0.176,0.731 -0.309,1.094l-0.628,1.68z" id="svg_11"/>
   <path fill="#005972" d="m134.272,29.484l0,-5.726l1.973,0c0.445,0 0.785,0.026 1.02,0.082c0.328,0.074 0.607,0.212 0.84,0.409c0.303,0.256 0.527,0.581 0.678,0.979c0.151,0.397 0.225,0.851 0.225,1.361c0,0.435 -0.051,0.819 -0.152,1.155s-0.232,0.614 -0.391,0.834c-0.159,0.221 -0.332,0.395 -0.521,0.521s-0.416,0.222 -0.684,0.287c-0.268,0.064 -0.574,0.098 -0.92,0.098l-2.068,0l0,0zm0.758,-0.676l1.223,0c0.377,0 0.674,-0.035 0.889,-0.105c0.215,-0.069 0.387,-0.169 0.514,-0.297c0.18,-0.18 0.32,-0.421 0.42,-0.725c0.1,-0.305 0.15,-0.671 0.15,-1.104c0,-0.599 -0.098,-1.06 -0.295,-1.381c-0.197,-0.321 -0.436,-0.537 -0.717,-0.646c-0.203,-0.078 -0.529,-0.117 -0.98,-0.117l-1.203,0l0,4.375l-0.001,0z" id="svg_12"/>
   <path fill="#005972" d="m140.179,29.484l0,-5.726l0.758,0l0,5.727l-0.758,-0.001l0,0z" id="svg_13"/>
   <path fill="#005972" d="m142.265,29.484l0,-5.726l0.777,0l3.008,4.496l0,-4.496l0.727,0l0,5.727l-0.777,0l-3.008,-4.5l0,4.5l-0.727,-0.001l0,0z" id="svg_14"/>
   <path fill="#005972" d="m150.729,27.238l0,-0.672l2.426,-0.004l0,2.125c-0.372,0.297 -0.756,0.521 -1.151,0.67s-0.803,0.225 -1.219,0.225c-0.563,0 -1.074,-0.119 -1.533,-0.36s-0.807,-0.589 -1.041,-1.045s-0.352,-0.966 -0.352,-1.527c0,-0.558 0.117,-1.077 0.35,-1.561c0.233,-0.484 0.568,-0.843 1.006,-1.076c0.438,-0.234 0.94,-0.353 1.513,-0.353c0.414,0 0.789,0.067 1.123,0.201s0.598,0.321 0.787,0.562c0.188,0.239 0.334,0.552 0.434,0.938l-0.684,0.188c-0.087,-0.292 -0.193,-0.521 -0.32,-0.688s-0.312,-0.3 -0.547,-0.4c-0.236,-0.1 -0.5,-0.149 -0.789,-0.149c-0.347,0 -0.646,0.053 -0.898,0.158c-0.252,0.104 -0.457,0.244 -0.611,0.416s-0.275,0.359 -0.361,0.565c-0.146,0.354 -0.219,0.738 -0.219,1.152c0,0.511 0.088,0.938 0.264,1.281c0.176,0.343 0.432,0.599 0.768,0.766s0.693,0.25 1.07,0.25c0.328,0 0.647,-0.063 0.961,-0.189s0.549,-0.261 0.711,-0.403l0,-1.068l-1.687,0l0,-0.002l-0.001,0z" id="svg_15"/>
   <path fill="#005972" d="m156.512,29.484l0,-5.726l4.141,0l0,0.676l-3.383,0l0,1.754l3.168,0l0,0.672l-3.168,0l0,1.949l3.516,0l0,0.676l-4.274,-0.001l0,0z" id="svg_16"/>
   <path fill="#005972" d="m161.831,29.484l0,-5.726l1.974,0c0.444,0 0.784,0.026 1.02,0.082c0.328,0.074 0.607,0.212 0.84,0.409c0.303,0.256 0.527,0.581 0.678,0.979c0.151,0.397 0.225,0.851 0.225,1.361c0,0.435 -0.051,0.819 -0.151,1.155s-0.231,0.614 -0.392,0.834c-0.158,0.221 -0.332,0.395 -0.521,0.521s-0.416,0.222 -0.685,0.287c-0.268,0.064 -0.573,0.098 -0.92,0.098l-2.068,0l0,0zm0.758,-0.676l1.224,0c0.377,0 0.674,-0.035 0.889,-0.105c0.215,-0.069 0.387,-0.169 0.514,-0.297c0.18,-0.18 0.32,-0.421 0.42,-0.725c0.1,-0.305 0.15,-0.671 0.15,-1.104c0,-0.599 -0.098,-1.06 -0.295,-1.381s-0.436,-0.537 -0.717,-0.646c-0.203,-0.078 -0.529,-0.117 -0.98,-0.117l-1.203,0l-0.002,4.375l0,0z" id="svg_17"/>
   <path fill="#005972" d="m170.288,27.238l0,-0.672l2.426,-0.004l0,2.125c-0.373,0.297 -0.756,0.521 -1.151,0.67c-0.396,0.149 -0.804,0.225 -1.22,0.225c-0.563,0 -1.073,-0.119 -1.532,-0.36s-0.808,-0.589 -1.041,-1.045c-0.234,-0.456 -0.353,-0.966 -0.353,-1.527c0,-0.558 0.117,-1.077 0.351,-1.561c0.232,-0.484 0.567,-0.843 1.006,-1.076c0.438,-0.234 0.94,-0.353 1.512,-0.353c0.414,0 0.789,0.067 1.123,0.201s0.598,0.321 0.787,0.562c0.188,0.239 0.334,0.552 0.434,0.938l-0.684,0.188c-0.086,-0.292 -0.193,-0.521 -0.32,-0.688s-0.311,-0.3 -0.547,-0.4c-0.236,-0.1 -0.5,-0.149 -0.789,-0.149c-0.346,0 -0.646,0.053 -0.898,0.158c-0.252,0.104 -0.457,0.244 -0.611,0.416c-0.153,0.172 -0.274,0.359 -0.36,0.565c-0.146,0.354 -0.219,0.738 -0.219,1.152c0,0.511 0.088,0.938 0.264,1.281c0.177,0.343 0.433,0.599 0.769,0.766s0.692,0.25 1.07,0.25c0.327,0 0.647,-0.063 0.961,-0.189c0.313,-0.126 0.549,-0.261 0.711,-0.403l0,-1.068l-1.687,0l0,-0.002l-0.002,0z" id="svg_18"/>
   <path fill="#005972" d="m173.848,29.484l0,-5.726l4.141,0l0,0.676l-3.383,0l0,1.754l3.168,0l0,0.672l-3.168,0l0,1.949l3.516,0l0,0.676l-4.274,-0.001l0,0z" id="svg_19"/>
  </g>
  <text fill="#005972" x="4" y="29.790985" id="svg_21" font-size="8" font-family="'ArialMT'" xml:space="preserve">HUB</text>
  <text fill="#005972" x="281" y="29.790985" id="svg_22" font-size="8" font-family="'ArialMT'" xml:space="preserve">TIP</text>
 </g>
</svg>