<?xml version="1.0" encoding="utf-8"?>
<!-- Generator: Adobe Illustrator 16.0.0, SVG Export Plug-In . SVG Version: 6.00 Build 0)  -->
<!DOCTYPE svg PUBLIC "-//W3C//DTD SVG 1.1//EN" "http://www.w3.org/Graphics/SVG/1.1/DTD/svg11.dtd">
<svg version="1.1" id="Layer_1" xmlns="http://www.w3.org/2000/svg" xmlns:xlink="http://www.w3.org/1999/xlink" x="0px" y="0px"
	 width="99px" height="21px" viewBox="0 0 359.381 66.393" enable-background="new 0 0 359.381 66.393"
	 xml:space="preserve">
<g>
	<defs>
		<rect id="SVGID_1_" width="359.381" height="66.393"/>
	</defs>
	<clipPath id="SVGID_2_">
		<use xlink:href="#SVGID_1_"  overflow="visible"/>
	</clipPath>
	<path clip-path="url(#SVGID_2_)" fill="#5e8ac0" d="M96.038,8.57h9.709l23.182,49.549h-13.247l-4.59-10.498H90.393l-4.441,10.498
		H73.006L96.038,8.57z M100.554,22.987l-6.473,15.396h13.021L100.554,22.987z"/>
	<rect x="130.126" y="24.106" clip-path="url(#SVGID_2_)" fill="#5e8ac0" width="11.29" height="34.013"/>
	<polygon clip-path="url(#SVGID_2_)" fill="#5e8ac0" points="158.22,34.236 158.22,58.15 146.93,58.15 146.93,24.138 
		168.612,24.138 168.612,34.236 	"/>
	<g clip-path="url(#SVGID_2_)">
		<defs>
			<rect id="SVGID_3_" y="0" width="359.381" height="66.393"/>
		</defs>
		<clipPath id="SVGID_4_">
			<use xlink:href="#SVGID_3_"  overflow="visible"/>
		</clipPath>
		<path clip-path="url(#SVGID_4_)" fill="#5e8ac0" d="M183.719,28.726V18.647h24.01V8.571h-35.751v49.548h11.742V38.804h12.129
			v4.059c0,2.286,0.163,4.409,0.49,6.368c0.325,1.96,0.979,3.663,1.956,5.109c0.979,1.446,2.358,2.579,4.14,3.394
			c1.781,0.816,4.103,1.226,6.962,1.226c1.355,0,2.609-0.164,3.764-0.489c1.153-0.328,2.183-0.746,3.086-1.261
			c0.904-0.513,1.668-1.096,2.296-1.749c0.627-0.653,1.141-1.307,1.543-1.96h0.151v4.619h10.838V24.106h-11.29v16.937
			c0,1.119-0.076,2.193-0.227,3.219c-0.149,1.027-0.464,1.949-0.94,2.765c-0.478,0.817-1.167,1.47-2.07,1.959
			c-0.903,0.49-2.082,0.736-3.537,0.736c-1.456,0-2.572-0.281-3.35-0.841c-0.778-0.561-1.354-1.282-1.731-2.169
			c-0.376-0.886-0.602-1.855-0.677-2.904c-0.075-1.05-0.113-2.065-0.113-3.044V28.726H183.719z"/>
		<path clip-path="url(#SVGID_4_)" fill="#5e8ac0" d="M255.795,34.114c-1.656-1.913-3.838-2.869-6.548-2.869
			c-0.953,0-1.883,0.21-2.785,0.63c-0.903,0.42-1.355,1.144-1.355,2.168c0,0.841,0.464,1.459,1.394,1.855
			c0.928,0.396,2.107,0.747,3.537,1.049c1.43,0.305,2.961,0.63,4.591,0.98c1.63,0.35,3.162,0.898,4.592,1.644
			c1.43,0.748,2.608,1.762,3.537,3.045c0.929,1.284,1.393,2.998,1.393,5.145c0,2.192-0.515,4.001-1.543,5.424
			s-2.346,2.565-3.952,3.429c-1.605,0.864-3.411,1.47-5.419,1.82c-2.007,0.349-3.988,0.524-5.945,0.524
			c-2.56,0-5.145-0.34-7.752-1.015c-2.61-0.676-4.817-1.878-6.624-3.604l6.85-7.068c1.053,1.214,2.22,2.135,3.5,2.764
			c1.279,0.63,2.771,0.945,4.478,0.945c1.305,0,2.484-0.175,3.537-0.525c1.055-0.349,1.581-0.99,1.581-1.924
			c0-0.886-0.464-1.551-1.393-1.995c-0.928-0.442-2.107-0.815-3.537-1.119c-1.43-0.303-2.962-0.63-4.592-0.979
			c-1.63-0.351-3.161-0.875-4.591-1.575c-1.431-0.7-2.609-1.691-3.537-2.975c-0.93-1.282-1.394-2.997-1.394-5.144
			c0-2.005,0.439-3.732,1.318-5.179c0.877-1.445,2.032-2.636,3.462-3.569c1.43-0.933,3.073-1.62,4.929-2.065
			c1.857-0.442,3.739-0.664,5.646-0.664c2.409,0,4.841,0.326,7.301,0.979c2.458,0.654,4.54,1.82,6.247,3.5L255.795,34.114z"/>
		<rect x="266.537" y="24.106" clip-path="url(#SVGID_4_)" fill="#5e8ac0" width="11.29" height="34.013"/>
		<path clip-path="url(#SVGID_4_)" fill="#5e8ac0" d="M280.745,41.112c0-2.704,0.527-5.154,1.58-7.349
			c1.054-2.192,2.496-4.069,4.328-5.633c1.831-1.562,3.989-2.765,6.473-3.604c2.484-0.84,5.131-1.26,7.941-1.26
			c2.809,0,5.456,0.42,7.941,1.26c2.482,0.839,4.64,2.042,6.472,3.604c1.831,1.564,3.273,3.441,4.328,5.633
			c1.054,2.194,1.581,4.645,1.581,7.349c0,2.707-0.527,5.156-1.581,7.349c-1.055,2.193-2.497,4.071-4.328,5.634
			c-1.832,1.564-3.989,2.764-6.472,3.604c-2.485,0.84-5.133,1.26-7.941,1.26c-2.811,0-5.457-0.42-7.941-1.26
			c-2.483-0.841-4.642-2.04-6.473-3.604c-1.832-1.563-3.274-3.44-4.328-5.634C281.272,46.269,280.745,43.819,280.745,41.112
			 M292.035,41.112c0,2.566,0.79,4.644,2.371,6.229s3.8,2.379,6.661,2.379c2.86,0,5.08-0.793,6.661-2.379
			c1.58-1.586,2.371-3.663,2.371-6.229c0-2.564-0.791-4.642-2.371-6.229c-1.581-1.585-3.801-2.379-6.661-2.379
			c-2.861,0-5.08,0.794-6.661,2.379C292.825,36.471,292.035,38.548,292.035,41.112"/>
		<path clip-path="url(#SVGID_4_)" fill="#5e8ac0" d="M324.156,24.106h10.838v4.619h0.15c0.351-0.653,0.853-1.306,1.506-1.959
			c0.652-0.653,1.43-1.236,2.333-1.75c0.903-0.513,1.932-0.933,3.086-1.26c1.153-0.325,2.408-0.489,3.763-0.489
			c2.86,0,5.168,0.408,6.926,1.224c1.755,0.817,3.124,1.948,4.102,3.394c0.979,1.447,1.644,3.15,1.994,5.109
			c0.351,1.959,0.528,4.083,0.528,6.368v18.757h-11.29V41.463c0-0.98-0.039-1.995-0.114-3.044c-0.075-1.051-0.3-2.019-0.676-2.904
			c-0.377-0.886-0.955-1.61-1.732-2.17c-0.778-0.56-1.894-0.84-3.35-0.84s-2.634,0.245-3.537,0.735
			c-0.903,0.49-1.593,1.145-2.07,1.959c-0.477,0.818-0.79,1.74-0.939,2.766c-0.151,1.026-0.228,2.1-0.228,3.219v16.937h-11.289
			V24.106z"/>
		<polygon clip-path="url(#SVGID_4_)" fill="#F48027" points="28.755,33.194 43.132,24.893 43.132,41.494 		"/>
		<polygon clip-path="url(#SVGID_4_)" fill="#CC203B" points="43.13,41.495 28.755,33.196 28.755,49.798 28.756,49.797 
			43.131,58.097 43.131,41.495 		"/>
		<polygon clip-path="url(#SVGID_4_)" fill="#CC203B" points="28.753,16.596 14.377,8.296 14.377,24.896 14.378,24.896 
			28.754,33.196 28.754,16.595 		"/>
		<polygon clip-path="url(#SVGID_4_)" fill="#FDBC35" points="28.754,33.194 14.377,24.893 14.377,41.494 		"/>
		<polygon clip-path="url(#SVGID_4_)" fill="#51B748" points="14.377,41.496 14.377,41.496 14.377,24.895 0,33.196 0,49.797 		"/>
		<polygon clip-path="url(#SVGID_4_)" fill="#6062AB" points="0,49.795 14.377,41.494 14.377,58.096 		"/>
		<polygon clip-path="url(#SVGID_4_)" fill="#FDBC35" points="43.13,8.3 28.755,0 28.755,16.598 28.754,16.597 28.754,33.199 
			43.13,24.899 43.131,24.901 43.131,8.299 		"/>
		<polygon clip-path="url(#SVGID_4_)" fill="#6062AB" points="57.509,16.601 43.132,8.3 43.132,24.902 		"/>
		<polygon clip-path="url(#SVGID_4_)" fill="#51B748" points="57.509,33.202 57.509,33.202 57.509,16.601 43.133,24.902 
			43.132,24.902 43.132,41.503 		"/>
		<polygon clip-path="url(#SVGID_4_)" fill="#F48027" points="14.379,58.093 28.754,66.393 28.754,49.796 28.755,49.796 
			28.755,33.194 14.379,41.494 14.378,41.492 14.378,58.094 		"/>
		<rect x="266.537" y="8.571" clip-path="url(#SVGID_4_)" fill="#5e8ac0" width="11.29" height="9.568"/>
		<rect x="130.126" y="8.571" clip-path="url(#SVGID_4_)" fill="#5e8ac0" width="11.29" height="9.568"/>
	</g>
</g>
</svg>
